<?xml version="1.0" standalone="no"?>
<!DOCTYPE svg PUBLIC "-//W3C//DTD SVG 20010904//EN"
 "http://www.w3.org/TR/2001/REC-SVG-20010904/DTD/svg10.dtd">
<svg version="1.0" xmlns="http://www.w3.org/2000/svg"
 width="158.000000pt" height="158.000000pt" viewBox="0 0 158.000000 158.000000"
 preserveAspectRatio="xMidYMid meet">
<metadata>
Created by potrace 1.11, written by Peter Selinger 2001-2013
</metadata>
<g transform="translate(0.000000,158.000000) scale(0.100000,-0.100000)"
fill="#000000" stroke="none">
<path d="M640 1543 c-8 -2 -22 -7 -30 -10 -8 -4 -18 -5 -22 -5 -5 1 -8 -1 -8
-6 0 -4 -15 -13 -32 -21 -18 -8 -41 -22 -51 -33 -10 -10 -22 -16 -28 -13 -5 4
-9 1 -9 -5 0 -6 -4 -9 -10 -5 -5 3 -18 -3 -29 -14 -11 -11 -22 -17 -25 -14 -3
4 -6 1 -6 -5 0 -7 -9 -12 -21 -12 -13 0 -18 -4 -13 -12 5 -8 2 -9 -9 -5 -10 4
-17 2 -17 -4 0 -6 -7 -8 -16 -5 -8 3 -13 2 -10 -3 7 -10 -43 -45 -51 -37 -3 3
-12 -2 -20 -12 -10 -11 -12 -12 -8 -2 4 8 -1 6 -10 -5 -9 -11 -21 -19 -26 -17
-5 1 -9 -3 -9 -9 0 -5 -5 -7 -10 -4 -6 4 -9 1 -8 -7 2 -7 -5 -12 -15 -12 -15
2 -16 -1 -5 -14 11 -13 10 -15 -5 -9 -10 4 -16 3 -12 -3 7 -11 -29 -72 -38
-64 -4 4 -5 -3 -2 -15 3 -15 -1 -21 -13 -21 -11 0 -13 -3 -6 -8 12 -7 17 -65
5 -58 -4 3 -7 -4 -7 -14 0 -10 3 -17 7 -14 10 6 5 -48 -5 -65 -6 -10 -5 -12 2
-7 7 4 12 3 12 -3 0 -5 -5 -13 -10 -16 -6 -4 -7 -11 -3 -18 9 -15 12 -107 2
-101 -4 2 -4 -9 1 -25 9 -34 8 -50 -4 -70 -6 -10 -5 -12 2 -7 16 10 15 -7 -1
-23 -9 -11 -9 -13 1 -7 6 4 12 2 12 -3 0 -6 -4 -11 -10 -11 -5 0 -10 -5 -10
-11 0 -5 5 -7 10 -4 6 3 10 1 10 -4 0 -6 -6 -11 -12 -11 -9 0 -8 -4 2 -10 8
-5 11 -10 6 -10 -6 0 -5 -5 1 -11 6 -6 9 -19 6 -28 -3 -9 -1 -12 4 -6 4 6 17
11 27 13 30 5 67 33 59 45 -4 6 0 8 10 4 10 -4 16 -2 14 6 -1 7 3 11 10 10 7
-2 10 4 7 12 -4 10 0 15 11 15 9 0 13 5 10 10 -3 6 -1 10 4 10 6 0 11 8 11 18
0 14 2 15 10 2 8 -12 10 -11 10 6 0 24 23 48 35 36 5 -4 5 -1 1 6 -4 7 -2 12
5 12 7 0 9 3 6 6 -4 4 5 20 18 36 14 16 25 34 25 40 0 6 3 8 6 5 7 -7 64 77
64 93 0 6 5 10 10 10 6 0 10 6 10 14 0 7 7 19 15 26 8 6 14 15 13 18 -2 19 3
33 11 28 10 -7 21 17 21 45 0 10 5 19 11 19 5 0 8 4 4 9 -3 6 3 14 12 20 10 5
18 13 18 18 0 4 4 7 9 5 5 -2 4 4 -4 12 -12 15 -7 21 14 17 5 -1 4 5 -4 13 -8
11 -9 16 -1 16 6 0 11 9 11 20 0 11 5 20 11 20 5 0 7 5 4 10 -3 6 -1 10 5 10
6 0 9 4 6 9 -3 5 1 14 9 21 7 6 12 17 9 24 -6 17 21 67 32 58 4 -4 2 1 -5 11
-10 13 -10 17 -1 17 7 0 10 7 6 16 -3 9 -2 12 5 8 6 -4 9 1 8 12 -2 11 0 25 4
32 6 8 4 12 -5 10 -7 -2 -12 3 -10 10 1 6 1 12 0 11 -2 0 -10 -3 -18 -6z"/>
<path d="M916 1535 c-7 -8 -15 -12 -18 -10 -2 2 -4 -9 -3 -24 0 -16 4 -27 9
-23 5 3 7 -2 3 -11 -4 -10 -1 -17 5 -17 6 0 8 -3 5 -6 -3 -4 -1 -16 5 -28 7
-11 11 -24 10 -28 -1 -5 3 -8 10 -8 6 0 8 -3 5 -7 -4 -3 -2 -12 5 -20 9 -11 7
-12 -8 -7 -16 5 -16 3 3 -13 29 -24 47 -70 30 -77 -7 -2 -5 -5 5 -5 9 -1 20
-6 24 -13 5 -7 3 -8 -6 -3 -8 5 -4 -6 9 -23 12 -18 19 -32 15 -32 -4 0 1 -8
10 -19 9 -10 18 -28 19 -40 1 -11 5 -21 10 -21 5 0 6 -7 3 -16 -3 -9 -2 -12 5
-9 6 4 13 -2 16 -14 3 -12 10 -21 15 -21 5 0 7 -4 3 -10 -3 -5 3 -18 14 -29
13 -13 18 -27 14 -38 -3 -10 -3 -15 2 -11 12 11 35 -11 35 -34 0 -10 5 -16 10
-13 5 3 10 -1 10 -9 0 -9 5 -16 10 -16 6 0 10 -7 10 -15 0 -8 5 -15 11 -15 5
0 8 -4 5 -9 -3 -5 1 -11 9 -15 8 -3 15 -12 15 -21 0 -8 6 -14 13 -13 6 2 11
-5 11 -14 -1 -10 2 -16 6 -13 11 7 71 -66 64 -77 -3 -5 -2 -7 3 -6 10 3 63
-49 63 -62 0 -6 6 -10 13 -11 6 0 22 -2 35 -3 12 -2 22 1 22 6 0 5 4 7 9 3 5
-3 13 0 17 6 4 8 3 9 -4 5 -8 -5 -12 2 -12 19 0 17 4 24 12 19 7 -5 8 -3 3 7
-15 23 -16 80 -3 97 9 11 9 14 1 9 -14 -9 -13 69 1 92 6 10 5 12 -2 7 -8 -5
-12 1 -12 14 0 14 4 19 13 14 9 -5 9 -4 0 6 -9 9 -9 19 -2 33 8 14 8 18 0 13
-7 -5 -11 1 -11 14 0 13 4 19 12 14 7 -5 8 -3 3 7 -15 23 -16 80 -3 97 7 9 8
13 2 9 -14 -8 -23 22 -20 57 2 17 -1 23 -10 19 -9 -3 -12 2 -9 17 2 13 2 20
-2 17 -9 -10 -64 64 -56 76 3 5 1 7 -5 3 -6 -3 -16 0 -24 7 -7 7 -17 15 -23
16 -5 2 -9 8 -7 13 2 6 -3 8 -11 5 -17 -6 -70 26 -60 37 4 4 0 4 -10 0 -10 -3
-17 -1 -17 6 0 6 -4 9 -9 6 -4 -3 -19 3 -31 14 -12 11 -26 17 -30 15 -4 -3
-10 2 -14 10 -3 8 -13 15 -21 15 -9 0 -13 4 -10 10 3 5 0 8 -7 5 -16 -6 -31 4
-47 30 -12 19 -12 19 -6 1 5 -18 4 -19 -12 -4 -10 8 -26 18 -36 21 -10 4 -16
11 -12 16 3 6 -3 8 -14 6 -11 -2 -22 2 -24 9 -8 20 -45 26 -61 11z"/>
<path d="M768 1119 c-7 -4 -16 -5 -22 -2 -5 3 -6 1 -2 -5 4 -7 2 -12 -4 -12
-6 0 -8 -4 -5 -10 3 -5 1 -10 -5 -10 -6 0 -9 -4 -5 -10 3 -5 -3 -18 -15 -30
-11 -11 -21 -23 -22 -27 -4 -24 -32 -79 -42 -85 -6 -4 -11 -12 -11 -18 0 -6
-6 -14 -13 -19 -8 -5 -14 -12 -14 -17 -1 -21 -11 -33 -21 -27 -6 3 -7 1 -3 -5
4 -7 -7 -26 -26 -44 -18 -17 -24 -25 -14 -17 18 13 18 13 6 -8 -8 -12 -17 -20
-21 -17 -4 2 -12 -10 -19 -26 -7 -16 -17 -27 -23 -23 -6 4 -8 0 -4 -10 4 -10
2 -17 -5 -17 -6 0 -1 -9 11 -19 13 -11 30 -17 38 -14 11 4 14 2 9 -5 -4 -7 -3
-12 3 -12 5 0 12 6 14 13 4 9 8 8 16 -3 9 -13 11 -12 11 3 0 14 4 16 18 8 10
-5 24 -6 32 -1 8 5 22 4 33 -2 13 -7 17 -7 13 0 -3 6 -2 13 4 17 5 3 10 2 10
-3 0 -6 7 -13 16 -16 8 -3 13 -2 10 3 -3 5 1 11 9 15 8 3 19 -3 24 -12 8 -14
10 -14 11 -2 0 19 58 19 70 1 5 -10 9 -8 14 4 3 9 11 13 17 9 8 -4 7 -9 -2
-15 -10 -6 -10 -9 -2 -9 6 0 15 5 18 10 4 7 12 7 25 0 13 -7 21 -7 25 0 3 5
11 10 17 10 6 0 5 -7 -3 -17 -13 -15 -12 -15 9 -2 17 11 26 11 40 2 12 -7 24
-8 35 -1 10 5 22 6 27 3 6 -3 10 -1 10 4 0 6 8 11 18 11 14 0 14 2 3 9 -8 5
-11 16 -8 26 4 9 3 14 -3 10 -6 -3 -10 1 -10 9 0 8 -9 20 -21 26 -12 7 -18 18
-15 26 3 8 2 13 -2 11 -4 -2 -15 4 -24 15 -10 10 -15 18 -12 18 4 0 -8 14 -25
32 -17 17 -31 40 -31 50 0 10 -5 18 -12 18 -6 0 -8 3 -5 7 4 3 -1 12 -11 20
-9 8 -12 12 -6 9 6 -3 11 1 11 9 0 8 -4 13 -9 12 -5 -1 -17 9 -26 23 -14 19
-14 22 -2 15 11 -6 10 -3 -3 12 -9 11 -14 23 -10 26 3 4 1 7 -6 7 -11 0 -38
56 -34 70 2 8 -36 7 -49 -1z"/>
<path d="M624 443 c5 -10 -3 -12 -34 -9 -22 2 -40 0 -40 -5 0 -5 -5 -9 -11 -9
-5 0 -7 6 -3 13 6 9 5 9 -8 0 -8 -7 -18 -10 -21 -6 -4 3 -13 0 -22 -7 -12 -10
-15 -10 -15 1 0 9 -3 10 -8 4 -4 -5 -11 -11 -17 -11 -5 -1 -23 -4 -38 -8 -22
-5 -27 -4 -21 6 6 10 4 10 -9 0 -9 -8 -21 -11 -26 -8 -5 4 -13 1 -16 -5 -4 -5
-13 -8 -21 -5 -8 3 -14 1 -14 -4 0 -6 -5 -10 -11 -10 -5 0 -7 6 -3 13 4 6 -3
3 -16 -8 -13 -11 -20 -14 -16 -8 4 8 -4 6 -22 -4 -27 -15 -42 -64 -18 -60 6 1
10 -4 9 -10 -2 -7 0 -12 5 -11 14 4 52 -14 47 -22 -3 -4 2 -11 11 -14 10 -4
13 -2 9 7 -4 6 1 3 9 -7 9 -11 16 -16 16 -11 0 4 10 0 22 -11 12 -10 18 -13
13 -5 -5 10 -4 12 3 7 7 -4 12 -14 12 -22 0 -8 4 -12 10 -9 11 7 65 -19 77
-37 4 -7 15 -13 23 -13 8 0 14 -6 13 -12 -2 -7 0 -12 5 -12 18 3 33 -2 28 -10
-3 -4 6 -7 19 -5 17 1 25 -3 25 -12 0 -9 5 -12 10 -9 6 3 10 1 10 -5 0 -6 5
-8 10 -5 6 3 10 1 10 -4 0 -6 7 -11 15 -11 9 0 18 -6 21 -14 3 -8 13 -12 25
-9 10 3 19 1 19 -5 0 -6 14 -8 33 -6 24 4 28 2 17 -5 -9 -7 -10 -11 -3 -11 6
0 15 5 18 10 4 7 13 6 27 -1 15 -8 19 -8 14 0 -4 6 0 11 9 11 10 0 13 -5 9
-12 -5 -9 -2 -9 9 1 9 7 17 10 17 6 0 -4 7 -2 15 5 8 6 19 9 25 5 5 -3 10 -1
10 5 0 7 7 9 16 6 10 -4 13 -2 8 6 -5 8 -2 9 10 5 10 -4 15 -3 11 3 -3 5 6 12
20 16 14 3 25 9 25 13 0 3 9 12 21 19 17 11 20 11 14 0 -3 -7 0 -5 9 6 8 10
20 15 25 11 6 -3 14 1 17 10 6 15 35 32 57 33 5 0 15 9 24 19 9 11 12 12 8 3
-4 -8 1 -6 9 4 9 11 16 16 16 11 0 -5 6 0 14 10 8 11 19 16 30 12 11 -4 15 -3
11 4 -4 5 7 15 24 22 17 6 31 15 31 20 0 4 4 6 9 3 5 -3 12 1 15 10 3 8 11 12
16 9 6 -4 9 -1 8 7 -2 7 3 12 10 10 10 -2 10 2 0 20 -21 36 -38 52 -38 36 0
-10 -3 -9 -10 2 -5 8 -10 11 -10 6 0 -5 -8 -2 -17 5 -14 12 -16 12 -8 0 6 -11
5 -12 -6 -5 -8 5 -22 7 -31 6 -10 -2 -18 1 -18 6 0 6 -12 9 -27 7 -16 -2 -37
4 -47 13 -11 10 -16 11 -12 5 4 -8 1 -13 -9 -13 -9 0 -14 4 -10 9 3 5 -7 8
-22 7 -16 -2 -31 2 -35 8 -5 8 -8 7 -8 -2 0 -7 -5 -10 -10 -7 -6 4 -8 12 -4
18 3 7 0 5 -8 -4 -13 -15 -43 -15 -34 0 3 4 -1 8 -9 8 -8 0 -12 -4 -9 -9 6 -9
-32 -5 -42 5 -4 4 -13 2 -21 -4 -7 -6 -13 -8 -13 -3 0 5 -47 9 -104 9 -57 0
-102 -3 -99 -7 2 -5 0 -8 -6 -8 -5 0 -12 6 -15 13 -5 9 -7 9 -12 -1 -5 -10 -9
-10 -22 0 -12 10 -14 10 -8 1z"/>
</g>
</svg>
